<?xml version="1.0" encoding="UTF-8" standalone="no"?>
<svg width="90px" height="68px" viewBox="0 0 90 68" version="1.1" xmlns="http://www.w3.org/2000/svg" xmlns:xlink="http://www.w3.org/1999/xlink">
    <!-- Generator: Sketch 3.8.1 (29687) - http://www.bohemiancoding.com/sketch -->
    <title>noun_475383</title>
    <desc>Created with Sketch.</desc>
    <defs></defs>
    <g id="Page-1" stroke="none" stroke-width="1" fill="none" fill-rule="evenodd">
        <g id="noun_475383" fill="#000000">
            <g id="Group">
                <path d="M58.529664,50.3207783 L34.7366873,30.5749014 C31.9390056,27.9768177 27.6889994,31.3876296 29.6210209,34.6815497 L43.7527875,62.1819786 C44.3140883,63.1402701 44.9746367,64.0301909 45.7178915,64.8351998 C53.5783076,73.3517534 67.3086725,62.3297473 60.6943662,52.8129978 C60.0691058,51.9142549 59.343495,51.0772662 58.529664,50.3207783 M90,44.9988972 L90,45.0352881 C89.9977945,47.0147279 88.3535913,48.6004852 86.3752542,48.6004852 L75.767883,48.6004852 C73.7388193,48.6004852 72.0913079,46.9595903 72.0846914,44.9305266 L72.0835886,44.8246624 C72.0769721,42.7911878 73.722278,41.1392653 75.7557527,41.1392653 L82.081138,41.1392653 C81.3169309,33.7508271 78.3836107,26.9975739 73.9329037,21.5235131 L69.6134242,25.8440954 C68.1622026,27.295317 65.7879776,27.295317 64.3367559,25.8440954 L64.2187615,25.7261009 C62.7333546,24.2395912 62.7333546,21.8091259 64.2187615,20.3226162 L68.4753841,16.0659936 C63.0013233,11.6163893 56.2491729,8.6819663 48.8596319,7.918862 L48.8596319,14.1119171 C48.8596319,16.2170706 47.1536746,17.9230279 45.0485211,17.9230279 L44.9404514,17.9230279 C42.8419144,17.9230279 41.1403681,16.2214816 41.1403681,14.1240473 L41.1403681,7.918862 C33.7508271,8.6819663 26.9986767,11.6163893 21.5246159,16.0670963 L25.7801358,20.3226162 C27.2666454,21.8091259 27.2666454,24.240694 25.7812385,25.7261009 L25.7261009,25.7812385 C24.240694,27.2666454 21.8091259,27.2666454 20.3226162,25.7812385 L16.0670963,21.5246159 C11.6174921,26.9986767 8.6830691,33.7508271 7.9199647,41.1392653 L14.232117,41.1392653 C16.2722082,41.1392653 17.9230279,42.7967015 17.9164114,44.8367927 L17.9153086,44.9415541 C17.9086921,46.965104 16.2666944,48.6004852 14.2431446,48.6004852 L3.62474575,48.6004852 C1.6464087,48.6004852 0.0022055,47.0147279 0,45.0352881 L0,44.9988972 C0,20.185875 20.1869777,0 45,0 C69.8130223,0 90,20.185875 90,44.9988972" id="Shape"></path>
            </g>
        </g>
    </g>
</svg>