<?xml version="1.0" encoding="UTF-8" standalone="no"?>
<svg width="17px" height="17px" viewBox="0 0 17 17" version="1.1" xmlns="http://www.w3.org/2000/svg" xmlns:xlink="http://www.w3.org/1999/xlink" xmlns:sketch="http://www.bohemiancoding.com/sketch/ns">
    <!-- Generator: Sketch 3.5.2 (25235) - http://www.bohemiancoding.com/sketch -->
    <title>Shape</title>
    <desc>Created with Sketch.</desc>
    <defs></defs>
    <g id="Page-1" stroke="none" stroke-width="1" fill="none" fill-rule="evenodd" sketch:type="MSPage">
        <path d="M9,0 L17,0 L17,6 L9,6 L9,0 L9,0 Z M9,17 L9,7 L17,7 L17,17 L9,17 L9,17 Z M0,17 L0,11 L8,11 L8,17 L0,17 L0,17 Z M0,10 L0,0 L8,0 L8,10 L0,10 L0,10 Z M1,1 L1,9 L7,9 L7,1 L1,1 L1,1 Z M10,1 L10,5 L16,5 L16,1 L10,1 L10,1 Z M10,8 L10,16 L16,16 L16,8 L10,8 L10,8 Z M1,12 L1,16 L7,16 L7,12 L1,12 L1,12 Z" id="Shape" fill="#000000" sketch:type="MSShapeGroup"></path>
    </g>
</svg>