<?xml version="1.0" encoding="UTF-8" standalone="no"?>
<svg width="90px" height="68px" viewBox="0 0 90 68" version="1.1" xmlns="http://www.w3.org/2000/svg" xmlns:xlink="http://www.w3.org/1999/xlink">
    <!-- Generator: Sketch 3.8.1 (29687) - http://www.bohemiancoding.com/sketch -->
    <title>noun_475384</title>
    <desc>Created with Sketch.</desc>
    <defs></defs>
    <g id="Page-1" stroke="none" stroke-width="1" fill="none" fill-rule="evenodd">
        <g id="noun_475384" fill="#000000">
            <g id="Group">
                <path d="M55.2633127,30.5760041 L31.470336,50.321881 C30.656505,51.0772662 29.9308942,51.9153577 29.3056338,52.8141005 C22.6913275,62.3308501 36.4216924,73.3528561 44.2821085,64.8363026 C45.0253633,64.0312937 45.6859117,63.1413728 46.2472125,62.1830813 L60.3789791,34.6826525 C62.3110006,31.3887323 58.0609944,27.9768177 55.2633127,30.5760041 M90,45 L90,45.0363908 C89.9977945,47.0147279 88.3535913,48.601588 86.3752542,48.601588 L75.7568554,48.601588 C73.7344083,48.601588 72.0924106,46.9662068 72.0846914,44.9426569 L72.0846914,44.8378955 C72.0769721,42.7978043 73.7277918,41.1403681 75.767883,41.1403681 L82.081138,41.1403681 C81.3169309,33.7519298 78.3836107,26.9997794 73.9329037,21.5257186 L69.6773838,25.7812385 C68.1908741,27.2677482 65.7604088,27.2677482 64.2738991,25.7812385 L64.2198642,25.7272037 C62.7333546,24.240694 62.7333546,21.8102286 64.2198642,20.323719 L68.4764869,16.0670963 C63.0013233,11.6174921 56.2491729,8.6830691 48.8596319,7.9199647 L48.8596319,14.1240473 C48.8596319,16.2225844 47.1580856,17.9241307 45.0606514,17.9241307 L44.9514789,17.9241307 C42.8463254,17.9241307 41.1403681,16.2170706 41.1403681,14.1130198 L41.1403681,7.9199647 C33.7508271,8.6830691 26.9986767,11.6174921 21.5246159,16.0670963 L25.7812385,20.323719 C27.2666454,21.8091259 27.2666454,24.240694 25.7812385,25.7272037 L25.6632441,25.8451981 C24.2120224,27.2964197 21.8377974,27.2964197 20.3865758,25.8451981 L16.0670963,21.5246159 C11.6163893,26.9986767 8.6830691,33.7508271 7.918862,41.1403681 L14.2442473,41.1403681 C16.277722,41.1403681 17.9241307,42.7922905 17.9164114,44.8257652 L17.9164114,44.9316294 C17.9086921,46.960693 16.2611807,48.601588 14.232117,48.601588 L3.62474575,48.601588 C1.6464087,48.601588 0.0022055,47.0147279 0,45.0363908 L0,45 C0,20.1869777 20.1869777,0 45,0 C69.8130223,0 90,20.1869777 90,45" id="Shape"></path>
            </g>
        </g>
    </g>
</svg>