<?xml version="1.0" encoding="UTF-8" standalone="no"?>
<svg width="90px" height="71px" viewBox="0 0 90 71" version="1.1" xmlns="http://www.w3.org/2000/svg" xmlns:xlink="http://www.w3.org/1999/xlink">
    <!-- Generator: Sketch 3.8.1 (29687) - http://www.bohemiancoding.com/sketch -->
    <title>noun_475382</title>
    <desc>Created with Sketch.</desc>
    <defs></defs>
    <g id="Page-1" stroke="none" stroke-width="1" fill="none" fill-rule="evenodd">
        <g id="noun_475382" fill="#000000">
            <g id="Group">
                <path d="M48.280176,28.2892431 C47.7254849,24.5111686 42.2745151,24.5111686 41.719824,28.2892431 L35.5255903,58.5822112 C35.3634838,59.6805656 35.3226814,60.7877421 35.3976695,61.8805828 C36.1960717,73.4430789 53.8039283,73.4430789 54.6023305,61.8805828 C54.6773186,60.7877421 54.6365162,59.6805656 54.4744097,58.5822112 L48.280176,28.2892431 L48.280176,28.2892431 L48.280176,28.2892431 Z M90,45.0005514 L90,45.0369426 C89.9977945,47.0153039 88.3546739,48.6021835 86.3752098,48.6021835 L75.7688113,48.6021835 C73.7386201,48.6021835 72.0921912,46.9612684 72.0844718,44.9321799 L72.0844718,44.8263144 C72.0767525,42.7928149 73.7231814,41.1408722 75.7555782,41.1408722 L82.081041,41.1408722 C81.3179273,33.7512406 78.3834683,26.9990075 73.9338096,21.5248796 L69.6131744,25.8455148 C68.161935,27.2967542 65.7876809,27.2967542 64.3364415,25.8455148 L64.2184456,25.7275189 C62.7330205,24.240991 62.7330205,21.8093931 64.2184456,20.323968 L68.4751204,16.0672932 C63.0009925,11.6176344 56.2487594,8.6831755 48.8602306,7.9200618 L48.8602306,14.1131928 C48.8602306,16.2172693 47.1531496,17.9243503 45.0479703,17.9243503 L44.9398993,17.9243503 C42.8413366,17.9243503 41.1408722,16.2227831 41.1408722,14.1242204 L41.1408722,7.9200618 C33.7512406,8.6831755 26.9979047,11.6176344 21.5237768,16.0672932 L25.7804516,20.323968 C27.2658768,21.8104959 27.2658768,24.240991 25.7804516,25.7275189 L25.7253134,25.7815544 C24.2398883,27.2680823 21.8082903,27.2680823 20.3228652,25.7815544 L16.0661904,21.5259824 C11.6165317,27.0001103 8.6820727,33.7523434 7.918959,41.1408722 L14.2311887,41.1408722 C16.2713048,41.1408722 17.9232475,42.7983287 17.9155282,44.8384449 L17.9155282,44.9432076 C17.9078088,46.9667823 16.265791,48.6021835 14.2433191,48.6021835 L3.62479017,48.6021835 C1.64532611,48.6021835 0.00220553,47.0153039 0,45.0369426 L0,45.0005514 C0,20.1872251 20.1872251,0 45.0005514,0 C69.8127749,0 90,20.1872251 90,45.0005514 L90,45.0005514 L90,45.0005514 L90,45.0005514 Z" id="Shape"></path>
            </g>
        </g>
    </g>
</svg>